<?xml version="1.0" encoding="utf-8"?>
<!-- Generator: Adobe Illustrator 21.0.2, SVG Export Plug-In . SVG Version: 6.00 Build 0)  -->
<svg version="1.1" id="Layer_1" xmlns="http://www.w3.org/2000/svg" xmlns:xlink="http://www.w3.org/1999/xlink" x="0px" y="0px"
	 viewBox="0 0 3011.7 847.1" enable-background="new 0 0 3011.7 847.1" xml:space="preserve">
<g>
	<path fill="#222222" stroke="#222222" stroke-width="9" stroke-miterlimit="10" d="M118.8,111.3c-43,0-84.2,41.1-118.5,71.2v-43
		c34.3-30.1,75.5-71.2,118.5-71.2c68.4,0,102.6,102.5,205.2,102.5c68.4,0,136.8-136.6,205.2-136.6c44.2,0,102.6,68.3,171,68.3
		C802.8,102.5,768.6,0,871.2,0c102.6,0,102.6,102.5,171,102.5c34.2,0,65.5-20.6,106.3-6.8c29.8,10.1,32.3,20.2,41.8,46.1
		c9.9,27.1,32,66.3,58.9,42.3l0.6-0.5l140.7-126.7c29.7-26.8,76.8-29.8,110.5-7.1l75.9,51.3c33.6,22.7,80.7,19.7,110.5-7.1l33.3-30
		c32.9-29.6,86.7-29.6,119.6,0l3.5,3.1c36.8,33.2,86.5,41.3,135.7,35.5c0.1,0,0.2,0,0.3,0c41.9-3.9,65.3,65.3,136.8,68.3
		c38.6,1.6,102.6-102.5,171-102.5c68.4,0,102.6,102.5,205.2,102.5c68.4,0,136.8-136.6,205.2-136.6c44.2,0,102.6,68.3,171,68.3
		c88.4,0,82.2,53.7,142.7,33.4v43c-60.4,20.3-54.2-33.4-142.7-33.4c-68.4,0-126.9-68.3-171-68.3c-68.4,0-136.8,136.6-205.2,136.6
		c-102.6,0-136.8-102.5-205.2-102.5c-68.4,0-132.4,104.1-171,102.5c-71.5-3-94.9-72.2-136.8-68.3c-0.1,0-0.2,0-0.3,0
		c-49.2,5.7-98.9-2.4-135.7-35.5l-3.5-3.1c-32.9-29.6-86.7-29.6-119.6,0l-33.3,30c-29.7,26.8-76.8,29.8-110.5,7.1L1501,92.8
		c-33.6-22.7-80.7-19.7-110.5,7.1l-140.7,126.7l-0.6,0.5c-26.9,24-69.1,8.3-74.8-27.3c-4.4-27.2-12.3-47.4-25.9-61
		c-30.5-30.4-72.1,6.8-106.3,6.8c-68.4,0-68.4-102.5-171-102.5c-102.6,0-68.4,102.5-171,102.5c-68.4,0-126.9-68.3-171-68.3
		c-68.4,0-136.8,136.6-205.2,136.6C221.4,213.9,187.3,111.4,118.8,111.3z"/>
	<path fill="#333333" stroke="#333333" stroke-width="10" stroke-miterlimit="10" d="M3011.4,847.1H0l0-664.5
		c34.3-30.1,75.5-71.2,118.5-71.2c68.4,0,102.6,102.5,205.2,102.5c68.4,0,136.8-136.6,205.2-136.6c44.2,0,102.6,68.3,171,68.3
		c102.6,0,68.4-102.5,171-102.5c102.6,0,102.6,102.5,171,102.5c34.2,0,75.8-37.2,106.3-6.8c13.7,13.6,21.6,33.8,25.9,61
		c5.7,35.5,47.9,51.3,74.8,27.3l0.6-0.5l140.7-126.7c29.7-26.8,76.8-29.8,110.5-7.1l75.9,51.3c33.6,22.7,80.7,19.7,110.5-7.1
		l33.3-30c32.9-29.6,86.7-29.6,119.6,0l3.5,3.1c36.8,33.2,86.5,41.3,135.7,35.5c0.1,0,0.2,0,0.3,0c41.9-3.9,65.3,65.3,136.8,68.3
		c38.6,1.6,102.6-102.5,171-102.5c68.4,0,102.6,102.5,205.2,102.5c68.4,0,136.8-136.6,205.2-136.6c44.2,0,102.6,68.3,171,68.3
		c88.4,0,82.2,53.7,142.7,33.4V847.1z"/>
</g>
</svg>
