<?xml version="1.0" encoding="utf-8"?>
<!-- Generator: Adobe Illustrator 21.0.2, SVG Export Plug-In . SVG Version: 6.00 Build 0)  -->
<svg version="1.1" id="Layer_1" xmlns="http://www.w3.org/2000/svg" xmlns:xlink="http://www.w3.org/1999/xlink" x="0px" y="0px"
	 viewBox="0 0 3015 647" enable-background="new 0 0 3015 647" xml:space="preserve">
<g>
	<path fill="#C49F4D" stroke="#C49F4D" stroke-width="10" stroke-miterlimit="10" d="M323.6,213.8c68.4,0,136.8-136.6,205.2-136.6
		c44.1,0,102.6,68.3,171,68.3c102.6,0,68.4-102.5,171-102.5c102.6,0,102.6,102.5,171,102.5c34.2,0,75.8-37.2,106.3-6.8
		c13.6,13.6,21.5,33.8,25.9,61c5.7,35.6,47.9,51.3,74.8,27.3l0.6-0.5l140.7-126.7c29.8-26.8,76.9-29.8,110.5-7.1l75.9,51.3
		c33.7,22.7,80.8,19.7,110.5-7.1l33.3-30c32.9-29.6,86.7-29.6,119.6,0l3.5,3.1c36.8,33.1,86.5,41.2,135.7,35.5c0.1,0,0.2,0,0.3,0
		c41.9-3.9,65.3,65.3,136.8,68.3c38.6,1.6,102.6-102.5,171-102.5c68.4,0,102.6,102.5,205.2,102.5c68.4,0,136.8-136.6,205.2-136.6
		c44.1,0,102.6,68.3,171,68.3c88.5,0,86.3,53.7,146.7,33.4v-43c-60.5,20.3-58.3-33.4-146.7-33.4c-68.4,0-126.8-68.3-171-68.3
		c-68.4,0-136.8,136.6-205.2,136.6c-102.6,0-136.8-102.5-205.2-102.5c-68.4,0-132.4,104.1-171,102.5c-71.5-3-94.9-72.2-136.8-68.3
		c-0.1,0-0.2,0-0.3,0c-49.2,5.8-98.9-2.3-135.7-35.5l-3.5-3.1c-32.9-29.6-86.7-29.6-119.6,0l-33.3,30
		c-29.8,26.8-76.9,29.8-110.5,7.1l-75.9-51.3c-33.7-22.7-80.8-19.7-110.5,7.1l-140.7,126.7l-0.6,0.5c-26.9,24-49-15.2-58.9-42.3
		c-9.5-25.9-12-36-41.8-46.1c-40.8-13.8-72.1,6.8-106.3,6.8C973.3,102.5,973.3,0,870.7,0c-102.6,0-68.4,102.5-171,102.5
		c-68.4,0-126.8-68.3-171-68.3c-68.4,0-136.8,136.6-205.2,136.6C221,170.8,186.9,68.3,118.5,68.3c-43,0-84.2,41.1-118.5,71.2v43
		c34.3-30.1,75.5-71.2,118.5-71.2C186.9,111.3,221,213.8,323.6,213.8z"/>
	<path fill="#E8C363" stroke="#E8C363" stroke-width="10" stroke-miterlimit="10" d="M3015,178.9c-60.5,20.3-58.3-33.4-146.7-33.4
		c-68.4,0-126.8-68.3-171-68.3c-68.4,0-136.8,136.6-205.2,136.6c-102.6,0-136.8-102.5-205.2-102.5c-68.4,0-132.4,104.1-171,102.5
		c-71.5-3-94.9-72.2-136.8-68.3c-0.1,0-0.2,0-0.3,0c-49.2,5.8-98.9-2.3-135.7-35.5l-3.5-3.1c-32.9-29.6-86.7-29.6-119.6,0l-33.3,30
		c-29.8,26.8-76.9,29.8-110.5,7.1l-75.9-51.3c-33.7-22.7-80.8-19.7-110.5,7.1l-140.7,126.7l-0.6,0.5c-26.9,24-69.1,8.2-74.8-27.3
		c-4.3-27.2-12.2-47.4-25.9-61c-30.5-30.4-72.1,6.8-106.3,6.8c-68.4,0-68.4-102.5-171-102.5c-102.6,0-68.4,102.5-171,102.5
		c-68.4,0-126.8-68.3-171-68.3c-68.4,0-136.8,136.6-205.2,136.6c-102.6,0-136.8-102.5-205.2-102.5c-43,0-84.2,41.1-118.5,71.2V647
		h3015V178.9z"/>
</g>
</svg>
